<svg id="Layer_1" data-name="Layer 1" xmlns="http://www.w3.org/2000/svg" viewBox="0 0 27.43 26"><defs><style>.cls-1{fill:#fff;}</style></defs><path class="cls-1" d="M12,5a.27.27,0,0,0,.11.36l.68.36h.58a.27.27,0,0,0,0-.54h-.45l-.56-.29A.27.27,0,0,0,12,5Z"/><path class="cls-1" d="M20.7,17.67a1.23,1.23,0,0,0-.23-.28l0,0,.37-.33a1,1,0,0,0,0-1.44L18,13.2a.43.43,0,0,1-.14-.32v-.27h.6a.65.65,0,0,0,.65-.61l.13-1.69L17.45,11a.65.65,0,0,0-.38.38.64.64,0,0,0,0,.54l.26.49v.48a.94.94,0,0,0,.33.72L20.44,16a.42.42,0,0,1,0,.64L20,17l-6.35-5.67V11l0,0,.5-1.34.57,0h.07a.9.9,0,0,0,.89-.78L16,6.51a.9.9,0,0,0-.46-.9L14,4.74a.15.15,0,0,0,0-.07l-.17-.51a1.36,1.36,0,0,0-.54-.71L11.56,2.36a1.12,1.12,0,0,0-1-.12L5.2,4.1a1.22,1.22,0,0,0-.76.76L2.81,9.73a.45.45,0,0,0,.19.53.45.45,0,0,0,.45,0l.33,2.46a.42.42,0,0,0,.8.08l0-.06,1.55,3.3a.42.42,0,0,0,.45.24A.41.41,0,0,0,7,16L7,15.6l.83.77-1.28,2.4-2.7,2.72-.71,1.35L3,23.2l0,.07-.28.53H5.29l.87-.88.48-.51.91-.54L6.91,23.8H9.25l.48-.53h0l.41-.46h0l2.48-2.72.24-.3.56.75a.26.26,0,0,1,0,.35l-1.88,1.92h0l-1,1h3l3.06-2.52a.8.8,0,0,0,.28-.57.79.79,0,0,0-.2-.59l-.52-.57h.76a.79.79,0,0,1,.62.3l1,1.2a1.37,1.37,0,0,0,.59.42l1,.35a.79.79,0,0,1,.41.33l1,1.65h3.17Zm-3.13-6a.11.11,0,0,1,0-.1s0-.05.07-.07l1-.39-.06.86a.13.13,0,0,1-.12.11h-.71ZM15.32,6.08a.35.35,0,0,1,.18.36l-.31,2.37a.36.36,0,0,1-.39.31L12.73,9a.37.37,0,0,1-.28-.17l-.66-1.06a.91.91,0,0,0-.24-.24l-1-.75a.36.36,0,0,1-.15-.35l.21-1.26a.38.38,0,0,1,.21-.28l1-.46a.28.28,0,0,1,.15,0,.34.34,0,0,1,.17,0ZM7.09,14.93a.3.3,0,0,0-.31-.07.32.32,0,0,0-.21.24l-.07.44L4.94,12.25A.4.4,0,0,0,4.55,12a.39.39,0,0,0-.3.16L4,10.07a.47.47,0,0,0-.32-.37.42.42,0,0,0-.27,0L5,5a.69.69,0,0,1,.42-.43l5.38-1.86a.58.58,0,0,1,.51.06l1.67,1.1a.81.81,0,0,1,.34.43v0l-.85-.45a.87.87,0,0,0-.8,0l-1,.47a.9.9,0,0,0-.52.67l-.2,1.26a.91.91,0,0,0,.35.88l1,.74a.22.22,0,0,1,.09.1L12,9.07a.89.89,0,0,0,.69.41l1,.08-.41,1.11a.42.42,0,0,0-.1.28v1.12l-2.24,1.59h0a.88.88,0,0,0-.28.48v0l.13,1a.06.06,0,0,1-.06,0l-1.51-.17-.08.07a.42.42,0,0,0-.19.32l-.12,1Zm5.13,4.8L9,23.27H7.66l1.5-4.63v0l.06-.2L10,17.34A.27.27,0,0,0,10,17a.27.27,0,0,0-.37.06l-.8,1.11,0,.06c0,.1-.07.2-.1.3L7.8,21.11,6.3,22,5.1,23.27H3.54l.78-1.46L7,19.09l1.24-2.34.29.26a.39.39,0,0,0,.28.12.4.4,0,0,0,.15,0,.43.43,0,0,0,.28-.35l.13-1.11,1.2.13a.61.61,0,0,0,.66-.47v-.05l-.14-1a.28.28,0,0,1,.09-.14l2.15-1.53.38,1.64A3.33,3.33,0,0,1,13.69,16L13,18.4A3.45,3.45,0,0,1,12.22,19.73Zm4,.75a.24.24,0,0,1,.07.2.26.26,0,0,1-.1.19l-2.88,2.4H11.81l2-2a.81.81,0,0,0,.08-1l-.51-.68h2.08Zm5.5,2.79-.86-1.4a1.36,1.36,0,0,0-.69-.56l-1-.34a.75.75,0,0,1-.35-.26l-1-1.19a1.34,1.34,0,0,0-1-.5h-3.6a3,3,0,0,0,.17-.47l.73-2.43a4.19,4.19,0,0,0,.06-2.05l-.46-1.9,6.3,5.62a.55.55,0,0,1,.14.17l3.42,5.31Z"/></svg>